<?xml version="1.0" encoding="utf-8"?>
<!-- Generator: Adobe Illustrator 17.1.0, SVG Export Plug-In . SVG Version: 6.00 Build 0)  -->
<!DOCTYPE svg PUBLIC "-//W3C//DTD SVG 1.1//EN" "http://www.w3.org/Graphics/SVG/1.1/DTD/svg11.dtd">
<svg version="1.1" id="Capa_1" xmlns="http://www.w3.org/2000/svg" xmlns:xlink="http://www.w3.org/1999/xlink" x="0px" y="0px"
	 viewBox="0 90 612 612" enable-background="new 0 90 612 612" xml:space="preserve">
<path d="M125.5,694C60.7,694,8,641.3,8,576.5v-361C8,150.7,60.7,98,125.5,98h361C551.3,98,604,150.7,604,215.5v361
	c0,64.8-52.7,117.5-117.5,117.5H125.5z M125.5,117.9c-53.8,0-97.6,43.8-97.6,97.6v361c0,53.8,43.8,97.6,97.6,97.6h361
	c53.8,0,97.6-43.8,97.6-97.6v-361c0-53.8-43.8-97.6-97.6-97.6H125.5z"/>
<g>
	<g>
		<path fill="#F0BC5E" d="M351.5,274.7c-1.6-5.9-5.4-10.8-10.7-13.9c-10.9-6.3-25-2.6-31.3,8.4l-3.5,6.1l-3.5-6.1
			c-6.3-10.9-20.3-14.7-31.3-8.4h0c-10.9,6.3-14.7,20.3-8.4,31.3l16.7,29l-61.8,107h-45c-12.6,0-22.9,10.3-22.9,22.9
			c0,12.6,10.3,22.9,22.9,22.9h173.9l-26.4-45.8h-49.5l78.5-136C352.2,286.8,353,280.6,351.5,274.7z"/>
	</g>
</g>
<g>
	<g>
		<path fill="#F0BC5E" d="M439.2,428.1h-45L343,339.4l-26.4,45.8l79.5,137.7c3.1,5.3,8,9.1,13.9,10.7c2,0.5,4,0.8,6,0.8
			c4,0,7.9-1,11.4-3.1c10.9-6.3,14.7-20.3,8.4-31.3l-15.1-26.1h18.6c12.6,0,22.9-10.3,22.9-22.9
			C462.1,438.3,451.9,428.1,439.2,428.1z"/>
	</g>
</g>
<g>
	<g>
		<path fill="#F0BC5E" d="M180.8,492.2l-4.5,7.8c-6.3,10.9-2.6,25,8.4,31.3c3.6,2.1,7.5,3.1,11.4,3.1c7.9,0,15.6-4.1,19.9-11.4
			l17.7-30.7H180.8z"/>
	</g>
</g>
</svg>
