<?xml version="1.0" encoding="iso-8859-1"?>
<!-- Generator: Adobe Illustrator 22.1.0, SVG Export Plug-In . SVG Version: 6.00 Build 0)  -->
<svg xmlns="http://www.w3.org/2000/svg" xmlns:xlink="http://www.w3.org/1999/xlink" version="1.1" id="Layer_1_1_" x="0px" y="0px" viewBox="0 0 64 64" style="enable-background:new 0 0 64 64;" xml:space="preserve" width="512" height="512">
<g>
	<path style="fill:#F0BC5E;" d="M40.087,3.935L40,4l-2.484,1.987C35.926,7.259,35,9.186,35,11.223c0,1.778,0.706,3.484,1.964,4.741   l1.001,1.001c0.663,0.663,1.036,1.562,1.036,2.5v0.441C39,21.615,40.385,23,42.094,23C43.699,23,45,24.301,45,25.906   c0,1.251,0.8,2.361,1.987,2.757l0.662,0.221C49.142,26.262,50,23.233,50,20C50,12.971,45.962,6.898,40.087,3.935z"/>
	<path style="fill:#F0BC5E;" d="M22.8,19.067l1,1.333c0.755,1.007,1.941,1.6,3.2,1.6c2.209,0,4-1.791,4-4v-1.333   C31,15.194,29.806,14,28.333,14c-0.839,0-1.63-0.395-2.133-1.067C24.815,11.087,22.642,10,20.333,10h-3.298   C15.12,12.861,14,16.299,14,20c0,3.136,0.804,6.084,2.215,8.651C17.376,26.772,18,24.608,18,22.394v-1.728   C18,19.194,19.194,18,20.667,18C21.506,18,22.296,18.395,22.8,19.067z"/>
	<path d="M58,17h-7.261C49.294,7.947,41.453,1,32,1S14.706,7.947,13.261,17H6c-2.757,0-5,2.243-5,5v30c0,2.757,2.243,5,5,5h13v4h-4   v2h34v-2h-4v-4h13c2.757,0,5-2.243,5-5V22C63,19.243,60.757,17,58,17z M6,19h7.051C13.033,19.333,13,19.662,13,20   c0,6.351,3.156,12.255,8.443,15.796l1.113-1.662C17.825,30.965,15,25.682,15,20c0-9.374,7.626-17,17-17s17,7.626,17,17   c0,5.682-2.825,10.965-7.557,14.134l1.113,1.662C47.844,32.255,51,26.351,51,20c0-0.338-0.033-0.667-0.051-1H58   c1.654,0,3,1.346,3,3v27H3V22C3,20.346,4.346,19,6,19z M43,61H21v-4h22V61z M58,55H6c-1.654,0-3-1.346-3-3v-1h58v1   C61,53.654,59.654,55,58,55z"/>
	<path style="fill:#F0BC5E;" d="M43,33.279l-2.456-0.818l1.158-2.315l-3.848-3.848l-2.315,1.158L34.721,25h-5.441l-0.818,2.456   l-2.315-1.158l-3.848,3.848l1.158,2.315L21,33.279v5.441l2.456,0.818l-1.158,2.315l3.848,3.848l2.315-1.158L29.279,47h5.441   l0.818-2.456l2.315,1.158l3.848-3.848l-1.158-2.315L43,38.721V33.279z M32,40c-2.209,0-4-1.791-4-4c0-2.209,1.791-4,4-4   s4,1.791,4,4C36,38.209,34.209,40,32,40z"/>
	<path d="M32,41c2.757,0,5-2.243,5-5s-2.243-5-5-5s-5,2.243-5,5S29.243,41,32,41z M32,33c1.654,0,3,1.346,3,3s-1.346,3-3,3   s-3-1.346-3-3S30.346,33,32,33z"/>
	<polygon points="12.293,40.293 13.707,41.707 18.414,37 13.707,32.293 12.293,33.707 14.586,36 5,36 5,38 14.586,38  "/>
	<polygon points="51.707,40.293 49.414,38 59,38 59,36 49.414,36 51.707,33.707 50.293,32.293 45.586,37 50.293,41.707  "/>
</g>
</svg>
