<?xml version="1.0" encoding="iso-8859-1"?>
<!-- Generator: Adobe Illustrator 22.1.0, SVG Export Plug-In . SVG Version: 6.00 Build 0)  -->
<svg xmlns="http://www.w3.org/2000/svg" xmlns:xlink="http://www.w3.org/1999/xlink" version="1.1" id="Layer_1_1_" x="0px" y="0px" viewBox="0 0 64 64" style="enable-background:new 0 0 64 64;" xml:space="preserve" width="512" height="512">
<g>
	<g>
		<circle style="fill:#F0BC5E;" cx="19" cy="27" r="10"/>
	</g>
	<g>
		<polygon points="57,62.618 52,60.118 47,62.618 47,51.162 49,51.162 49,59.382 52,57.882 55,59.382 55,51.162 57,51.162   "/>
	</g>
	<g>
		<path d="M35,53H3V9h32v5.94h2V6c0-2.757-2.243-5-5-5H6C3.243,1,1,3.243,1,6v52c0,2.757,2.243,5,5,5h26c2.757,0,5-2.243,5-5V40h-2    V53z M6,3h26c1.654,0,3,1.346,3,3v1H3V6C3,4.346,4.346,3,6,3z M32,61H6c-1.654,0-3-1.346-3-3v-3h32v3C35,59.654,33.654,61,32,61z"/>
		<rect x="16" y="57" width="6" height="2"/>
		<path d="M33,27c0-1.878-0.391-3.712-1.103-5.409l11.281-4.773l-0.779-1.842l-11.404,4.825c-0.718-1.197-1.609-2.297-2.67-3.245    c-2.968-2.651-6.956-3.911-10.95-3.465C11.104,13.8,5.953,18.849,5.126,25.098c-0.59,4.455,0.904,8.796,4.099,11.91    c0.262,0.255,0.493,0.536,0.704,0.832C9.359,38.386,9,39.15,9,40c0,1.388,0.952,2.548,2.234,2.889C12.095,46.421,15.307,49,19,49    s6.905-2.579,7.766-6.111C28.048,42.548,29,41.388,29,40c0-0.852-0.361-1.618-0.933-2.164c0.205-0.286,0.43-0.557,0.683-0.803    c0.882-0.856,1.622-1.814,2.24-2.835l11.408,4.827l0.779-1.842l-11.263-4.765C32.626,30.726,33,28.894,33,27z M19,47    c-2.56,0-4.806-1.657-5.641-4h11.282C23.806,45.343,21.56,47,19,47z M26,41h-0.079h-0.866H12.945H12c-0.552,0-1-0.448-1-1    s0.448-1,1-1h14c0.552,0,1,0.448,1,1S26.552,41,26,41z M19,29c-1.103,0-2-0.897-2-2s0.897-2,2-2s2,0.897,2,2S20.103,29,19,29z     M27.356,35.598c-0.437,0.425-0.802,0.912-1.13,1.425C26.15,37.017,26.077,37,26,37h-6v-6.142c1.721-0.447,3-1.999,3-3.858    c0-2.206-1.794-4-4-4s-4,1.794-4,4c0,1.859,1.279,3.411,3,3.858V37h-6c-0.079,0-0.154,0.017-0.232,0.023    c-0.333-0.52-0.703-1.014-1.147-1.447c-2.738-2.669-4.019-6.394-3.513-10.217c0.709-5.35,5.12-9.674,10.49-10.279    c3.478-0.399,6.811,0.662,9.393,2.968c0.838,0.749,1.545,1.612,2.135,2.544l-3.515,1.487l0.779,1.842l3.667-1.551    C30.665,23.823,31,25.393,31,27c0,1.621-0.32,3.189-0.929,4.637l-3.681-1.557l-0.779,1.842l3.518,1.488    C28.628,34.193,28.043,34.932,27.356,35.598z"/>
	</g>
	<g>
		<path style="fill:#F0BC5E;" d="M52,23c-6.065,0-11-4.935-11-11S45.935,1,52,1s11,4.935,11,11S58.065,23,52,23z"/>
	</g>
	<g>
		<path style="fill:#F0BC5E;" d="M52,53c-6.065,0-11-4.935-11-11s4.935-11,11-11s11,4.935,11,11S58.065,53,52,53z"/>
	</g>
	<path d="M52,11c-0.552,0-1-0.448-1-1s0.448-1,1-1s1,0.448,1,1h2c0-1.302-0.839-2.402-2-2.816V5h-2v2.184   C49.839,7.598,49,8.698,49,10c0,1.654,1.346,3,3,3c0.552,0,1,0.448,1,1s-0.448,1-1,1s-1-0.448-1-1h-2c0,1.302,0.839,2.402,2,2.816   V19h2v-2.184c1.161-0.414,2-1.514,2-2.816C55,12.346,53.654,11,52,11z"/>
	<g>
		<path d="M52,47c-2.757,0-5-2.243-5-5s2.243-5,5-5s5,2.243,5,5S54.757,47,52,47z M52,39c-1.654,0-3,1.346-3,3s1.346,3,3,3    s3-1.346,3-3S53.654,39,52,39z"/>
	</g>
</g>
</svg>
