<?xml version="1.0" encoding="utf-8"?>
<!-- Generator: Adobe Illustrator 17.1.0, SVG Export Plug-In . SVG Version: 6.00 Build 0)  -->
<!DOCTYPE svg PUBLIC "-//W3C//DTD SVG 1.1//EN" "http://www.w3.org/Graphics/SVG/1.1/DTD/svg11.dtd">
<svg version="1.1" id="Layer_1" xmlns="http://www.w3.org/2000/svg" xmlns:xlink="http://www.w3.org/1999/xlink" x="0px" y="0px"
	 viewBox="0 0 612 612" enable-background="new 0 0 612 612" xml:space="preserve">
<path fill="#F0BC5E" d="M441.8,278.8L201.6,140.1c-9.8-5.7-21.5-5.7-31.4,0c-0.1,0-0.2,0.1-0.2,0.1c-0.1,0.1-0.3,0.2-0.4,0.3
	c-9.4,5.7-15,15.7-15,26.8v277.4c0,11.3,5.9,21.5,15.7,27.2c4.9,2.8,10.3,4.3,15.7,4.3c5.4,0,10.8-1.4,15.7-4.3l240.2-138.7
	c9.8-5.7,15.7-15.8,15.7-27.2S451.6,284.5,441.8,278.8z M174.7,447.1c-0.1-0.7-0.2-1.5-0.2-2.4V167.3c0-1.5,0.3-2.8,0.7-3.9
	L310.9,305L174.7,447.1z M203.8,164.5l155.6,89.9l-34.7,36.2L203.8,164.5z M199.5,450l125.2-130.6l36,37.5L199.5,450z M431.8,315.9
	l-53.3,30.8l-40-41.7l38.7-40.4l54.6,31.5c5.2,3,5.7,7.9,5.7,9.9S437,312.9,431.8,315.9z"/>
<path d="M125.5,604C60.7,604,8,551.3,8,486.5v-361C8,60.7,60.7,8,125.5,8h361C551.3,8,604,60.7,604,125.5v361
	c0,64.8-52.7,117.5-117.5,117.5H125.5z M125.5,27.9c-53.8,0-97.6,43.8-97.6,97.6v361c0,53.8,43.8,97.6,97.6,97.6h361
	c53.8,0,97.6-43.8,97.6-97.6v-361c0-53.8-43.8-97.6-97.6-97.6H125.5z"/>
</svg>
