<?xml version="1.0" encoding="iso-8859-1"?>
<!-- Generator: Adobe Illustrator 22.1.0, SVG Export Plug-In . SVG Version: 6.00 Build 0)  -->
<svg xmlns="http://www.w3.org/2000/svg" xmlns:xlink="http://www.w3.org/1999/xlink" version="1.1" id="Layer_1_1_" x="0px" y="0px" viewBox="0 0 64 64" style="enable-background:new 0 0 64 64;" xml:space="preserve" width="512" height="512">
<g>
	<g>
		<path style="fill:#F0BC5E;" d="M43,33.279l-2.456-0.818l1.158-2.315l-3.848-3.848l-2.315,1.158L34.721,25h-5.441l-0.818,2.456    l-2.315-1.158l-3.848,3.848l1.158,2.315L21,33.279v5.441l2.456,0.818l-1.158,2.315l3.848,3.848l2.315-1.158L29.279,47h5.441    l0.818-2.456l2.315,1.158l3.848-3.848l-1.158-2.315L43,38.721V33.279z M32,40c-2.209,0-4-1.791-4-4c0-2.209,1.791-4,4-4    s4,1.791,4,4C36,38.209,34.209,40,32,40z"/>
	</g>
	<g>
		<path d="M32,41c-2.757,0-5-2.243-5-5s2.243-5,5-5s5,2.243,5,5S34.757,41,32,41z M32,33c-1.654,0-3,1.346-3,3s1.346,3,3,3    s3-1.346,3-3S33.654,33,32,33z"/>
	</g>
	<g>
		<path d="M58,17h-3V1H9v16H6c-2.757,0-5,2.243-5,5v30c0,2.757,2.243,5,5,5h13v4h-4v2h34v-2h-4v-4h13c2.757,0,5-2.243,5-5V22    C63,19.243,60.757,17,58,17z M53,3v6H11V3H53z M6,19h3v18h12v-2H11V11h42v24H43v2h12V19h3c1.654,0,3,1.346,3,3v27H3V22    C3,20.346,4.346,19,6,19z M43,61H21v-4h22V61z M58,55H6c-1.654,0-3-1.346-3-3v-1h58v1C61,53.654,59.654,55,58,55z"/>
		<rect x="13" y="5" width="2" height="2"/>
		<rect x="17" y="5" width="2" height="2"/>
		<rect x="21" y="5" width="2" height="2"/>
		<rect x="13" y="13" width="20" height="2"/>
		<rect x="13" y="17" width="20" height="2"/>
		<rect x="13" y="21" width="20" height="2"/>
	</g>
</g>
</svg>
