<?xml version="1.0" encoding="utf-8"?>
<!-- Generator: Adobe Illustrator 17.1.0, SVG Export Plug-In . SVG Version: 6.00 Build 0)  -->
<!DOCTYPE svg PUBLIC "-//W3C//DTD SVG 1.1//EN" "http://www.w3.org/Graphics/SVG/1.1/DTD/svg11.dtd">
<svg version="1.1" id="Layer_1" xmlns="http://www.w3.org/2000/svg" xmlns:xlink="http://www.w3.org/1999/xlink" x="0px" y="0px"
	 viewBox="0 0 612 792" enable-background="new 0 0 612 792" xml:space="preserve">
<circle fill="#FCD000" cx="305" cy="395" r="306"/>
<g>
	<path fill="#996459" d="M142.9,654.5C189.9,684,245.5,701,305,701c59.5,0,115.1-17,162.1-46.5H152.5L142.9,654.5z"/>
	<rect x="148" y="649.5" fill="#996459" width="315.6" height="6.2"/>
	<path fill="#996459" d="M459.5,654.5v-54c0-19.4,7.6-37.7,21.3-51.4l29.9-29.9c4.3,3.4,8.2,7.1,11.6,11.3l-30,30
		c-10.7,10.7-16.6,24.9-16.6,40V649c24.2-16.3,46-36,64.6-58.4V581c0-31.1-19.6-64.4-53.5-73.8L402.7,493L306,533.4L208.8,493
		l-83.6,14.2c-33.9,9.5-53.5,42.7-53.5,73.8v12c18.7,22,40.5,41.3,64.6,57.3v-49.8c0-15.1-5.9-29.3-16.6-40l-30-30
		c3.4-4.2,7.3-7.9,11.6-11.3l29.9,29.9c13.7,13.7,21.3,32,21.3,51.4v54h314.6c0,0,0,0,0,0H459.5z"/>
	<path fill="#7E5C62" d="M152.5,654.5v-54c0-19.4-7.6-37.7-21.3-51.4l-29.9-29.9c-4.3,3.3-8.2,7.1-11.6,11.3l30,30
		c10.7,10.7,16.6,24.9,16.6,40v49.8c2.2,1.4,4.3,2.8,6.5,4.2H152.5z"/>
	<path fill="#7E5C62" d="M492.2,560.5l30-30c-3.4-4.2-7.3-7.9-11.6-11.3l-29.9,29.9c-13.7,13.7-21.3,32-21.3,51.4v54h7.6
		c2.9-1.8,5.7-3.6,8.5-5.5v-48.5C475.7,585.4,481.5,571.2,492.2,560.5z"/>
</g>
<g>
	<g>
		<rect x="249.2" y="452.6" fill="#FFDCAD" width="113.1" height="105"/>
	</g>
	<g>
		<path fill="#4296D9" d="M338.3,559.6c-19.4,12.4-32.3,14.2-32.3,14.2s-12.9-1.8-32.3-14.2c0,0-11.7-29.6-8.3-26.2
			c3.4,3.4,40.6,0,40.6,0l32.1,8.1L338.3,559.6z"/>
	</g>
	<g>
		<path fill="#7E5C62" d="M171.3,499.3c0.1,0.3,0.1,0.6,0.3,0.8c61.4,99,121.2,112.1,127.8,113.3l5.2,0.9c0.5,0.1,0.9,0.1,1.4,0.1
			c0.5,0,0.9,0,1.4-0.1l5.2-0.9c6.6-1.2,66.4-14.3,127.8-113.3c0.1-0.2,0.1-0.5,0.3-0.8l-38-6.4L306,533.4L208.8,493L171.3,499.3z"
			/>
	</g>
	<g>
		<path fill="#4BB9EC" d="M233.3,452.6L202.8,493l49.2,72.7c2.8,4.2,8.8,4.8,12.4,1.2l41.6-33.5L233.3,452.6z"/>
	</g>
	<g>
		<path fill="#4BB9EC" d="M378.7,452.6l30.5,40.4L360,565.7c-2.8,4.2-8.8,4.8-12.4,1.2L306,533.4L378.7,452.6z"/>
	</g>
	<g>
		<path fill="#FFFFFF" d="M419.3,313.7l-16.3-38.9c0,0-70.7-39-185.8-24.2h-0.2c-20.7,26.1-32.3,58.1-32.3,96.9
			c0,80.3,54.3,145.4,121.2,145.4S427,427.9,427,347.5c0-13-1.6-25.6-4.2-37.6C420.6,312.3,419.3,313.7,419.3,313.7z"/>
	</g>
	<g>
		<circle fill="#AEEFFF" cx="257.3" cy="347.5" r="32.3"/>
	</g>
	<g>
		<path fill="#FFFFFF" d="M257.3,315.2c-8.9,0-16.9,3.6-22.7,9.4l45.7,45.7c5.8-5.8,9.4-13.9,9.4-22.7
			C289.6,329.7,275.2,315.2,257.3,315.2z"/>
	</g>
	<g>
		<circle fill="#AEEFFF" cx="354.3" cy="347.5" r="32.3"/>
	</g>
	<g>
		<path fill="#FFFFFF" d="M354.5,315.2c-8.9,0-16.9,3.6-22.7,9.4l45.7,45.7c5.8-5.8,9.4-13.9,9.4-22.7
			C386.8,329.7,372.3,315.2,354.5,315.2z"/>
	</g>
	<g>
		<path fill="#324A5E" d="M434.6,158.5c-1.5-3.3-4.9-5.2-8.5-4.7c-20.2,2.9-44.8-2-70.8-7.2c-43.6-8.7-88.6-17.8-123.7,7.3
			c-0.5-0.1-1-0.2-1.6-0.2c-36.1,0-61.3,29.9-61.3,72.7c0,34.9,15.5,101.5,16.1,104.4c0.8,3.5,3.9,6.1,7.6,6.2c0.1,0,0.2,0,0.3,0
			c3.5,0,6.7-2.3,7.7-5.7l22.9-73.3c96.5-11.1,160.5,16.5,173.4,22.7l15.2,36.2c1.3,3.1,4.4,5.3,7.8,4.9c3.4-0.1,6.3-2.4,7.3-5.6
			C451.2,240.3,442.3,176.1,434.6,158.5z"/>
	</g>
	<g>
		<g>
			<path fill="#5C546A" d="M322.2,355.6c-4.5,0-8.1-3.6-8.1-8.1c0-4.5-3.6-8.1-8.1-8.1c-4.5,0-8.1,3.6-8.1,8.1
				c0,4.5-3.6,8.1-8.1,8.1s-8.1-3.6-8.1-8.1c0-13.4,10.9-24.2,24.2-24.2c13.4,0,24.2,10.9,24.2,24.2
				C330.2,352,326.6,355.6,322.2,355.6z"/>
		</g>
	</g>
	<g>
		<g>
			<path fill="#5C546A" d="M225.2,347.5h-40.6c-4.5,0-8.1-3.6-8.1-8.1s3.6-8.1,8.1-8.1h40.6c4.5,0,8.1,3.6,8.1,8.1
				S229.7,347.5,225.2,347.5z"/>
		</g>
	</g>
	<g>
		<g>
			<path fill="#5C546A" d="M427,347.5h-40.2c-4.5,0-8.1-3.6-8.1-8.1s3.6-8.1,8.1-8.1H427c4.5,0,8.1,3.6,8.1,8.1
				S431.4,347.5,427,347.5z"/>
		</g>
	</g>
	<g>
		<g>
			<path fill="#868491" d="M257.5,387.9c-22.3,0-40.4-18.1-40.4-40.4c0-22.3,18.1-40.4,40.4-40.4s40.4,18.1,40.4,40.4
				C297.9,369.8,279.8,387.9,257.5,387.9z M257.5,323.3c-13.4,0-24.2,10.9-24.2,24.2c0,13.4,10.9,24.2,24.2,24.2
				c13.4,0,24.2-10.9,24.2-24.2C281.8,334.2,270.9,323.3,257.5,323.3z"/>
		</g>
	</g>
	<g>
		<g>
			<path fill="#868491" d="M354.5,387.9c-22.3,0-40.4-18.1-40.4-40.4c0-22.3,18.1-40.4,40.4-40.4s40.4,18.1,40.4,40.4
				C394.9,369.8,376.7,387.9,354.5,387.9z M354.5,323.3c-13.4,0-24.2,10.9-24.2,24.2c0,13.4,10.9,24.2,24.2,24.2
				s24.2-10.9,24.2-24.2C378.7,334.2,367.8,323.3,354.5,323.3z"/>
		</g>
	</g>
</g>
</svg>
