<?xml version="1.0" encoding="utf-8"?>
<!-- Generator: Adobe Illustrator 17.1.0, SVG Export Plug-In . SVG Version: 6.00 Build 0)  -->
<!DOCTYPE svg PUBLIC "-//W3C//DTD SVG 1.1//EN" "http://www.w3.org/Graphics/SVG/1.1/DTD/svg11.dtd">
<svg version="1.1" id="Layer_1" xmlns="http://www.w3.org/2000/svg" xmlns:xlink="http://www.w3.org/1999/xlink" x="0px" y="0px"
	 viewBox="0 0 612 792" enable-background="new 0 0 612 792" xml:space="preserve">
<circle fill="#FCD000" cx="306" cy="396" r="306"/>
<g>
	<path fill="#84DBFF" d="M307.4,527.1c-0.5,0-1,0.5-1.4,0.5c-0.5,0-1-0.5-1.4-0.5H307.4z"/>
	<path fill="#84DBFF" d="M543.6,588.8C487.7,657.7,401.9,702,306,702S124.3,657.7,68.4,588.8c40-53.5,101.2-80,151.3-93
		c-3.9,31.8,12.5,74.2,13,73.2c16.9-38.6,73.2-41.9,73.2-41.9s56.4,3.4,72.8,41.9c0.5,1,17.3-41.4,13-73.2
		C442.4,508.8,504.1,535.3,543.6,588.8z"/>
</g>
<path fill="#FFFFFF" d="M374.9,465.9c0,0,0,0,0,0.5c0,4.8-2.4,35.7-67.5,60.2h-2.9c-65.1-24.6-67.5-55.4-67.5-60.2
	c0-0.5,0-0.5,0-0.5c0-6.3,1.4-12.5,2.9-18.8c18.8,23.6,41.4,39.5,66,39.5s47.2-15.9,66-39.5C373.5,453.3,374.9,459.6,374.9,465.9z"
	/>
<g>
	<path fill="#54C0EB" d="M374.9,465.9c0,0,3.4,34.7-68.9,61.7c0,0,56.4,3.4,72.8,41.9C379.7,570.4,412,486.6,374.9,465.9z"/>
	<path fill="#54C0EB" d="M237.1,465.9c-37.1,20.7-4.8,104.6-3.9,103.1c16.9-38.6,72.8-41.9,72.8-41.9
		C233.7,500.6,237.1,465.9,237.1,465.9z"/>
</g>
<g>
	<path fill="#FFFFFF" d="M407.2,344c-4.3,29.9-17.3,57.8-39,79c-4.3,4.3-8.2,7.7-13,11.1l-7.7-24.6h-82.9l-7.7,24.6
		c-15.4-11.6-47.7-43.9-48.2-74.2c-13.5-173,119-136.4,119-136.4C416.8,217.2,413.9,295.8,407.2,344z"/>
	<path fill="#FFFFFF" d="M425,375.3c-6.7,11.1-15.9,18.8-24.6,21.7c3.4-7.7,6.3-15.9,8.7-24.1c0,0,0,0,0-0.5
		c1.9-7.2,3.9-14.5,5.8-21.7h-0.5c1.9-7.2,3.9-14.5,5.3-21.7c1.9,0,3.9,1,5.8,1.9C436.1,337.7,435.6,357.4,425,375.3z"/>
	<path fill="#FFFFFF" d="M211.5,397c-8.7-2.9-17.8-10.6-24.6-21.7c-11.1-17.8-11.1-37.6-0.5-43.9c1-0.5,1.4-1,2.4-1
		c5.8,22.6,12.5,39.5,14,42.9C205.3,381.1,208.2,389.3,211.5,397z"/>
</g>
<path id="SVGCleanerId_0" fill="#324A5E" d="M358.5,175.3c3.9-44.3-66.5-41.4-66.5-41.4C185.5,149.3,174,248.5,174,248.5l14.5-17.3
	c-22.6,49.6,11.6,134.9,14.5,141.7c17.8,59.3,57.3,113.7,103.1,113.7s85.3-54.5,103.1-113.7l0,0c0,0,0,0,0-0.5
	c1.9-7.2,3.9-14.5,5.3-21.7h-0.5c9.6-38.6,20.2-77.6,20.2-77.6C461.7,134.8,358.5,175.3,358.5,175.3z M407.2,344
	c-4.3,29.9-17.3,57.8-39,79c-4.3,4.3-8.7,7.7-13,11.1l-7.7-24.1h-82.9l-7.7,24.6c-15.4-11.6-28.4-27.5-39-45.8
	c-4.8-9.6-7.7-19.8-9.2-28.4c-13.5-173,119-136.4,119-136.4C416.8,217.2,413.9,295.8,407.2,344z"/>
<g>
	<path id="SVGCleanerId_0_1_" fill="#324A5E" d="M358.5,175.3c3.9-44.3-66.5-41.4-66.5-41.4C185.5,149.3,174,248.5,174,248.5
		l14.5-17.3c-22.6,49.6,11.6,134.9,14.5,141.7c17.8,59.3,57.3,113.7,103.1,113.7s85.3-54.5,103.1-113.7l0,0c0,0,0,0,0-0.5
		c1.9-7.2,3.9-14.5,5.3-21.7h-0.5c9.6-38.6,20.2-77.6,20.2-77.6C461.7,134.8,358.5,175.3,358.5,175.3z M407.2,344
		c-4.3,29.9-17.3,57.8-39,79c-4.3,4.3-8.7,7.7-13,11.1l-7.7-24.1h-82.9l-7.7,24.6c-15.4-11.6-28.4-27.5-39-45.8
		c-4.8-9.6-7.7-19.8-9.2-28.4c-13.5-173,119-136.4,119-136.4C416.8,217.2,413.9,295.8,407.2,344z"/>
</g>
<path fill="#324A5E" d="M358.5,175.3c3.9-44.3-66.5-41.4-66.5-41.4C185.5,149.3,174,248.5,174,248.5l14.5-17.3
	c-22.6,49.6,11.6,134.9,14.5,141.7c17.8,59.3,57.3,113.7,103.1,113.7s85.3-54.5,103.1-113.7l0,0c0,0,0,0,0-0.5
	c1.9-7.2,3.9-14.5,5.3-21.7h-0.5c9.6-38.6,20.2-77.6,20.2-77.6C461.7,134.8,358.5,175.3,358.5,175.3z M407.2,344
	c-4.3,29.9-17.3,57.8-39,79c-4.3,4.3-8.7,7.7-13,11.1l-7.7-24.1h-82.9l-7.7,24.6c-15.4-11.6-47.7-43.9-48.2-74.2
	c-13.5-173,119-136.4,119-136.4C416.8,217.2,413.9,295.8,407.2,344z"/>
<path fill="#FFFFFF" d="M272.3,426.4c8.2,9.2,20.2,15.4,33.7,15.4c13.5,0,25.5-5.8,33.7-15.4H272.3z"/>
</svg>
