<?xml version="1.0" encoding="utf-8"?>
<!-- Generator: Adobe Illustrator 17.1.0, SVG Export Plug-In . SVG Version: 6.00 Build 0)  -->
<!DOCTYPE svg PUBLIC "-//W3C//DTD SVG 1.1//EN" "http://www.w3.org/Graphics/SVG/1.1/DTD/svg11.dtd">
<svg version="1.1" id="Layer_1" xmlns="http://www.w3.org/2000/svg" xmlns:xlink="http://www.w3.org/1999/xlink" x="0px" y="0px"
	 viewBox="0 0 612 792" enable-background="new 0 0 612 792" xml:space="preserve">
<circle fill="#FCD000" cx="306" cy="396" r="306"/>
<g>
	<path fill="#E6E9EE" d="M307.4,527.6c-0.5,0-1,0.5-1.9,0.5c-0.5,0-1-0.5-1.9-0.5H307.4z"/>
	<path fill="#E6E9EE" d="M552.2,576.7C496.8,652.4,406.7,702,305.5,702S114.7,652.8,58.8,576.7c43.4-46.3,102.2-70.8,151.3-83.4
		c-4.3,35.2,14,82.4,14.5,81C242.9,531.9,305,528,305,528s62.2,3.4,81,46.3c0.5,1,18.8-45.8,14.5-81
		C450.1,505.9,508.9,530.4,552.2,576.7z"/>
</g>
<path fill="#FFFFFF" d="M381.7,461.1L381.7,461.1c0,6.3-3.9,39.5-74.2,66.5h-3.9c-70.4-27-74.2-60.2-74.2-66.5l0,0
	c0.5-12.5,3.4-25.1,8.7-36.6c19.3,21.7,42.4,36.1,67.5,36.1c24.6,0,48.2-14,67.5-36.1C378.3,436,381.7,448.5,381.7,461.1z"/>
<path fill="#F1543F" d="M347.4,538.6L332,569.5h-53l-15.4-30.8c21.2-9.2,41.9-10.6,41.9-10.6S326.7,529.5,347.4,538.6z"/>
<path fill="#FF7058" d="M262.6,699.1c14,1.9,28.4,2.9,43.4,2.9c14.5,0,28.9-1,43.4-2.9L332.5,570h-53L262.6,699.1z"/>
<g>
	<path fill="#FFFFFF" d="M381.7,460.1c0,0,3.4,38.6-76.1,67.9c0,0,62.2,3.4,81,46.3C387,576.2,423.1,482.7,381.7,460.1z"/>
	<path fill="#FFFFFF" d="M229.4,460.1c-41,22.6-5.3,115.7-4.3,114.2c18.3-42.4,81-46.3,81-46.3C226,498.6,229.4,460.1,229.4,460.1z"
		/>
</g>
<path fill="#FFDCAD" d="M376.8,434.1c-20.2,21.7-44.3,35.7-71.3,35.7s-51.1-14-71.3-35.7c1-3.4,2.4-6.7,3.9-9.6
	c19.3,21.7,42.4,36.1,67.5,36.1c25.1,0,48.2-14,67.5-36.1C374.4,427.3,375.9,430.7,376.8,434.1z"/>
<path fill="#FFFFFF" d="M437.1,360.3c-10.1,16.9-25.5,27-37.1,25.1c-23.1,42.9-56.9,74.7-94.5,74.7s-71.3-32.3-94.5-74.7
	c-11.6,1.4-27-8.2-37.1-25.1c-12-19.8-12.5-41.4-1-48.7c2.9-1.4,5.8-2.4,9.2-1.9c7.7,19.8,18.3,31.8,18.3,31.8
	c-11.1-61.2,34.2-67.9,26.5-126.7c0,0,28.4,63.1,109.9,18.8l-6.3,12c113.7-25.5,75.7,108.4,74.7,111.8c13-16.4,21.2-32.8,26-47.7
	c1.9,0,4.3,1,5.8,1.9C449.6,318.4,449.1,340.6,437.1,360.3z"/>
<path fill="#324A5E" d="M371.1,151.2c9.2-1,24.1,7.2,24.1,7.2c-41-46.7-107.9-16.9-107.9-16.9c22.6-19.3,42.9-17.3,42.9-17.3
	c-95.9-14.5-112.3,42.9-112.3,42.9c-4.3-6.7-4.3-16.4-3.9-21.2c-6.7,11.6,0.5,34.7,0.5,34.7c-6.7-16.9-30.4-14-30.4-14
	c20.2,3.4,23.6,15.9,23.6,15.9c-50.6,18.8-41.9,71.3-41.9,71.3l12-14.5c-14.9,57.3,23.1,101.7,23.1,101.7
	c-11.1-61.2,34.2-67.9,26.5-126.7c0,0,28.4,63.1,109.9,18.8l-6.3,12c115.2-26,74.7,112.3,74.7,112.3c41-52,34.7-105.5,34.7-105.5
	l4.8,19.3C458.3,184.5,371.1,151.2,371.1,151.2z"/>
</svg>
